<?xml version="1.0" standalone="no"?>
<!DOCTYPE svg PUBLIC "-//W3C//DTD SVG 20010904//EN"
 "http://www.w3.org/TR/2001/REC-SVG-20010904/DTD/svg10.dtd">
<svg version="1.0" xmlns="http://www.w3.org/2000/svg"
 width="260.000000pt" height="260.000000pt" viewBox="0 0 260.000000 260.000000"
 preserveAspectRatio="xMidYMid meet">
<metadata>
Created by potrace 1.14, written by Peter Selinger 2001-2017
</metadata>
<g transform="translate(0.000000,260.000000) scale(0.100000,-0.100000)"
fill="#000000" stroke="none">
<path d="M1145 2469 c-248 -31 -491 -152 -676 -338 -253 -253 -377 -597 -341
-945 31 -292 151 -538 362 -740 394 -376 996 -430 1457 -131 114 74 264 224
338 338 257 395 257 899 0 1294 -74 114 -224 264 -338 338 -238 154 -520 219
-802 184z m396 -242 c214 -55 409 -190 542 -374 55 -75 123 -226 149 -329 31
-125 31 -321 0 -448 -26 -102 -94 -253 -149 -329 -133 -184 -326 -317 -542
-375 -133 -35 -334 -37 -465 -4 -285 71 -516 260 -641 524 -66 141 -89 244
-89 408 0 164 23 267 89 408 141 298 407 491 750 546 73 11 262 -3 356 -27z"/>
</g>
</svg>
